<?xml version="1.0" standalone="no"?>
<!DOCTYPE svg PUBLIC "-//W3C//DTD SVG 20010904//EN"
 "http://www.w3.org/TR/2001/REC-SVG-20010904/DTD/svg10.dtd">
<svg version="1.0" xmlns="http://www.w3.org/2000/svg"
 width="144.000000pt" height="144.000000pt" viewBox="0 0 144.000000 144.000000"
 preserveAspectRatio="xMidYMid meet">
<metadata>
Created by potrace 1.14, written by Peter Selinger 2001-2017
</metadata>
<g transform="translate(0.000000,144.000000) scale(0.100000,-0.100000)"
fill="#000000" stroke="none">
<path d="M382 1342 c-18 -34 -22 -71 -10 -78 7 -5 44 -9 82 -11 38 -1 70 -4
72 -6 2 -2 -22 -102 -52 -222 -30 -121 -57 -229 -60 -241 -18 -89 -145 -579
-151 -585 -4 -4 -44 -10 -88 -13 -43 -4 -83 -10 -87 -14 -5 -5 -9 -26 -11 -48
l-2 -39 504 0 504 0 78 200 c43 110 80 207 83 215 9 25 36 105 36 108 0 2 -23
2 -50 0 l-50 -3 -49 -113 c-53 -123 -87 -177 -137 -222 -74 -65 -132 -78 -350
-80 -164 -1 -175 0 -171 17 3 10 32 123 63 251 l58 232 92 0 c101 0 150 -12
159 -40 3 -11 3 -41 -1 -67 -15 -105 -14 -108 33 -111 33 -2 44 1 52 16 13 24
135 521 129 523 -51 9 -86 8 -94 -3 -6 -7 -18 -38 -27 -69 -33 -110 -78 -139
-219 -141 -49 0 -90 1 -93 3 -6 7 104 432 115 443 5 5 71 9 147 9 310 0 341
-24 328 -245 l-7 -118 46 0 c24 0 47 3 49 8 3 4 13 59 22 122 9 63 18 126 20
140 7 39 19 142 19 170 l1 25 -487 2 c-453 2 -488 1 -496 -15z"/>
</g>
</svg>
