<svg width="144" height="144" viewBox="0 0 144 144" fill="black"
    xmlns="http://www.w3.org/2000/svg">
    <path d="M38.9364 8.37647C39.1869 8.12549 55.4056 8 87.5925 8H135.685L136.436 8.5647C136.812 9.06666 137 9.56862 137 10.0706L130.801 53.9294C130.425 54.3059 130.174 54.5569 130.049 54.6824C129.799 54.9333 128.421 55.0588 125.916 55.0588C123.286 55.0588 121.783 54.9333 121.408 54.6824C120.781 54.3059 120.593 52.6118 120.844 49.6C121.595 44.4549 121.971 40.0627 121.971 36.4235C121.971 31.0274 121.282 27.3255 119.905 25.3176C118.527 23.0588 116.022 21.3647 112.39 20.2353C108.257 19.1059 99.9913 18.5412 87.5925 18.5412C78.5751 18.6667 73.8786 18.9804 73.5029 19.4824C73.3777 19.6078 71.3738 27.0745 67.4913 41.8824L62.0434 64.0941C62.0434 64.2196 64.7987 64.2824 70.3093 64.2824C77.1975 64.1569 81.6436 63.7176 83.6474 62.9647C87.4046 61.7098 90.1599 59.1373 91.9133 55.2471C92.79 53.3647 93.7293 50.5412 94.7312 46.7765C95.3574 44.3922 95.8584 43.0745 96.2341 42.8235L96.7977 42.2588H100.555C103.561 42.2588 105.314 42.698 105.815 43.5765C105.94 44.0784 103.936 52.8 99.8035 69.7412C95.42 86.9333 93.1657 95.5922 93.0405 95.7176C92.79 96.4706 91.0992 96.8471 87.9682 96.8471H84.211L83.4595 96.2824C82.9586 95.6549 83.0212 93.898 83.6474 91.0118C84.5241 86.9961 84.9624 83.8588 84.9624 81.6L84.5867 79.1529C83.9605 77.3961 82.395 76.2039 79.8902 75.5765C77.7611 75.0745 73.315 74.8235 66.552 74.8235H59.4133L53.2139 99.4824C49.0809 116.173 47.0145 124.58 47.0145 124.706C47.0145 125.082 47.3902 125.271 48.1416 125.271H76.133C86.2775 124.518 94.105 121.82 99.6156 117.176C105.001 112.533 110.574 102.494 116.335 87.0588C117.087 85.051 117.713 83.7961 118.214 83.2941L118.777 82.7294H122.723H126.668L127.231 83.2941C127.732 83.7961 127.732 84.8 127.231 86.3059C126.605 88.3137 123.599 96.2196 118.214 110.024C111.701 126.839 108.445 135.184 108.445 135.059C108.195 135.561 106.253 135.812 102.621 135.812C98.6137 135.937 83.6474 136 57.7225 136H8.31503L7.56358 135.435C7.18786 134.808 7 134.306 7 133.929C7 131.922 7.6262 129.475 8.87861 126.588C10.3815 125.835 12.7611 125.459 16.0173 125.459C21.6532 125.333 24.8468 125.082 25.5983 124.706C26.2245 124.329 26.7254 123.576 27.1012 122.447C27.9778 120.063 32.2987 103.059 40.0636 71.4353C48.7052 36.8 52.9634 19.4824 52.8382 19.4824C52.212 18.8549 48.3921 18.5412 41.3786 18.5412H37.6214L36.8699 17.9765C36.2437 17.2235 36.3064 15.4667 37.0578 12.7059C37.8092 10.0706 38.4355 8.62744 38.9364 8.37647Z"/>
</svg>
